HIERARCHY
ROOT Root
{
  OFFSET 0.0 0.0 0.0
  CHANNELS 6 Xposition Yposition Zposition Zrotation Yrotation Xrotation
  JOINT Hips
  {
    OFFSET 0.0 100.0 0.0
    CHANNELS 6 Xposition Yposition Zposition Zrotation Yrotation Xrotation
    JOINT Spine1
    {
      OFFSET -0.013727 5.003763 -0.053727
      CHANNELS 3 Zrotation Yrotation Xrotation
      JOINT Spine2
      {
        OFFSET -0.0 7.125301 -0.029825
        CHANNELS 3 Zrotation Yrotation Xrotation
        JOINT Chest
        {
          OFFSET -1e-06 7.550063 -0.815971
          CHANNELS 3 Zrotation Yrotation Xrotation
          JOINT Neck1
          {
            OFFSET -0.181677 26.311295 -0.553348
            CHANNELS 3 Zrotation Yrotation Xrotation
            JOINT Neck2
            {
              OFFSET -3e-06 7.709397 2.302585
              CHANNELS 3 Zrotation Yrotation Xrotation
              JOINT Head
              {
                OFFSET -5e-06 6.128916 1.953709
                CHANNELS 3 Zrotation Yrotation Xrotation
                JOINT HeadEnd
                {
                  OFFSET 0.003598 16.065403 -1.835379
                  CHANNELS 3 Zrotation Yrotation Xrotation
                }
                JOINT Jaw
                {
                  OFFSET 0.002637 0.475592 3.094941
                  CHANNELS 3 Zrotation Yrotation Xrotation
                }
                JOINT LeftEye
                {
                  OFFSET 3.206381 5.380205 7.586883
                  CHANNELS 3 Zrotation Yrotation Xrotation
                }
                JOINT RightEye
                {
                  OFFSET -3.22244 5.361869 7.558234
                  CHANNELS 3 Zrotation Yrotation Xrotation
                }
              }
            }
          }
          JOINT LeftShoulder
          {
            OFFSET 1.621652 23.237164 5.113413
            CHANNELS 3 Zrotation Yrotation Xrotation
            JOINT LeftArm
            {
              OFFSET 14.919846 2e-06 -5.502326
              CHANNELS 3 Zrotation Yrotation Xrotation
              JOINT LeftForeArm
              {
                OFFSET 28.739307 0.0 -0.002588
                CHANNELS 3 Zrotation Yrotation Xrotation
                JOINT LeftHand
                {
                  OFFSET 27.093981 -1e-06 0.002609
                  CHANNELS 3 Zrotation Yrotation Xrotation
                  JOINT LeftHandThumb1
                  {
                    OFFSET 2.276482 -1.392045 3.191413
                    CHANNELS 3 Zrotation Yrotation Xrotation
                    JOINT LeftHandThumb2
                    {
                      OFFSET 4.012836 -1.828127 1.641654
                      CHANNELS 3 Zrotation Yrotation Xrotation
                      JOINT LeftHandThumb3
                      {
                        OFFSET 2.798515 0.0 -3e-06
                        CHANNELS 3 Zrotation Yrotation Xrotation
                        JOINT LeftHandThumbEnd
                        {
                          OFFSET 3.180793 -4e-06 4e-06
                          CHANNELS 3 Zrotation Yrotation Xrotation
                        }
                      }
                    }
                  }
                  JOINT LeftHandIndex1
                  {
                    OFFSET 3.247555 -0.531998 2.296169
                    CHANNELS 3 Zrotation Yrotation Xrotation
                    JOINT LeftHandIndex2
                    {
                      OFFSET 6.364578 0.01206 0.1786
                      CHANNELS 3 Zrotation Yrotation Xrotation
                      JOINT LeftHandIndex3
                      {
                        OFFSET 3.662364 0.0 0.0
                        CHANNELS 3 Zrotation Yrotation Xrotation
                        JOINT LeftHandIndex4
                        {
                          OFFSET 2.329242 4e-06 4e-06
                          CHANNELS 3 Zrotation Yrotation Xrotation
                          JOINT LeftHandIndexEnd
                          {
                            OFFSET 2.759615 -0.180537 -0.113024
                            CHANNELS 3 Zrotation Yrotation Xrotation
                          }
                        }
                      }
                    }
                  }
                  JOINT LeftHandMiddle1
                  {
                    OFFSET 3.163495 0.240981 1.000332
                    CHANNELS 3 Zrotation Yrotation Xrotation
                    JOINT LeftHandMiddle2
                    {
                      OFFSET 6.19078 -0.259278 -1.002548
                      CHANNELS 3 Zrotation Yrotation Xrotation
                      JOINT LeftHandMiddle3
                      {
                        OFFSET 4.35652 -4e-06 -1e-06
                        CHANNELS 3 Zrotation Yrotation Xrotation
                        JOINT LeftHandMiddle4
                        {
                          OFFSET 2.996877 -8e-06 0.0
                          CHANNELS 3 Zrotation Yrotation Xrotation
                          JOINT LeftHandMiddleEnd
                          {
                            OFFSET 2.304287 -0.294569 -0.031741
                            CHANNELS 3 Zrotation Yrotation Xrotation
                          }
                        }
                      }
                    }
                  }
                  JOINT LeftHandRing1
                  {
                    OFFSET 2.882643 -0.053652 -0.322543
                    CHANNELS 3 Zrotation Yrotation Xrotation
                    JOINT LeftHandRing2
                    {
                      OFFSET 5.854541 -0.486202 -1.373841
                      CHANNELS 3 Zrotation Yrotation Xrotation
                      JOINT LeftHandRing3
                      {
                        OFFSET 4.350578 0.0 3e-06
                        CHANNELS 3 Zrotation Yrotation Xrotation
                        JOINT LeftHandRing4
                        {
                          OFFSET 2.651321 7e-06 2e-06
                          CHANNELS 3 Zrotation Yrotation Xrotation
                          JOINT LeftHandRingEnd
                          {
                            OFFSET 1.936105 0.077687 -7.1e-05
                            CHANNELS 3 Zrotation Yrotation Xrotation
                          }
                        }
                      }
                    }
                  }
                  JOINT LeftHandPinky1
                  {
                    OFFSET 2.8655 -0.310005 -1.600378
                    CHANNELS 3 Zrotation Yrotation Xrotation
                    JOINT LeftHandPinky2
                    {
                      OFFSET 5.087849 -1.331141 -1.77123
                      CHANNELS 3 Zrotation Yrotation Xrotation
                      JOINT LeftHandPinky3
                      {
                        OFFSET 3.070974 4e-06 0.0
                        CHANNELS 3 Zrotation Yrotation Xrotation
                        JOINT LeftHandPinky4
                        {
                          OFFSET 1.549672 0.0 1e-06
                          CHANNELS 3 Zrotation Yrotation Xrotation
                          JOINT LeftHandPinkyEnd
                          {
                            OFFSET 1.944893 -0.157802 0.057219
                            CHANNELS 3 Zrotation Yrotation Xrotation
                          }
                        }
                      }
                    }
                  }
                }
              }
            }
          }
          JOINT RightShoulder
          {
            OFFSET -1.380118 23.180309 5.214158
            CHANNELS 3 Zrotation Yrotation Xrotation
            JOINT RightArm
            {
              OFFSET -15.037196 1.2e-05 -5.545604
              CHANNELS 3 Zrotation Yrotation Xrotation
              JOINT RightForeArm
              {
                OFFSET -28.736639 2e-06 -0.002597
                CHANNELS 3 Zrotation Yrotation Xrotation
                JOINT RightHand
                {
                  OFFSET -27.133619 -0.0 0.002613
                  CHANNELS 3 Zrotation Yrotation Xrotation
                  JOINT RightHandThumb1
                  {
                    OFFSET -2.274032 -1.383988 3.163127
                    CHANNELS 3 Zrotation Yrotation Xrotation
                    JOINT RightHandThumb2
                    {
                      OFFSET -4.011429 -1.827466 1.640914
                      CHANNELS 3 Zrotation Yrotation Xrotation
                      JOINT RightHandThumb3
                      {
                        OFFSET -2.794935 -4e-06 -3e-06
                        CHANNELS 3 Zrotation Yrotation Xrotation
                        JOINT RightHandThumbEnd
                        {
                          OFFSET -3.183852 4e-06 1e-06
                          CHANNELS 3 Zrotation Yrotation Xrotation
                        }
                      }
                    }
                  }
                  JOINT RightHandIndex1
                  {
                    OFFSET -3.253266 -0.520057 2.282866
                    CHANNELS 3 Zrotation Yrotation Xrotation
                    JOINT RightHandIndex2
                    {
                      OFFSET -6.341917 0.012471 0.178266
                      CHANNELS 3 Zrotation Yrotation Xrotation
                      JOINT RightHandIndex3
                      {
                        OFFSET -3.654871 -8e-06 -0.0
                        CHANNELS 3 Zrotation Yrotation Xrotation
                        JOINT RightHandIndex4
                        {
                          OFFSET -2.327586 0.0 1e-06
                          CHANNELS 3 Zrotation Yrotation Xrotation
                          JOINT RightHandIndexEnd
                          {
                            OFFSET -2.76179 -0.180656 -0.113078
                            CHANNELS 3 Zrotation Yrotation Xrotation
                          }
                        }
                      }
                    }
                  }
                  JOINT RightHandMiddle1
                  {
                    OFFSET -3.168106 0.246593 1.00103
                    CHANNELS 3 Zrotation Yrotation Xrotation
                    JOINT RightHandMiddle2
                    {
                      OFFSET -6.180828 -0.258836 -1.000895
                      CHANNELS 3 Zrotation Yrotation Xrotation
                      JOINT RightHandMiddle3
                      {
                        OFFSET -4.348901 0.0 -0.0
                        CHANNELS 3 Zrotation Yrotation Xrotation
                        JOINT RightHandMiddle4
                        {
                          OFFSET -3.00024 -4e-06 -2e-06
                          CHANNELS 3 Zrotation Yrotation Xrotation
                          JOINT RightHandMiddleEnd
                          {
                            OFFSET -2.30252 -0.29437 -0.031706
                            CHANNELS 3 Zrotation Yrotation Xrotation
                          }
                        }
                      }
                    }
                  }
                  JOINT RightHandRing1
                  {
                    OFFSET -2.88569 -0.067952 -0.308858
                    CHANNELS 3 Zrotation Yrotation Xrotation
                    JOINT RightHandRing2
                    {
                      OFFSET -5.854198 -0.48613 -1.373731
                      CHANNELS 3 Zrotation Yrotation Xrotation
                      JOINT RightHandRing3
                      {
                        OFFSET -4.33881 -4e-06 -0.0
                        CHANNELS 3 Zrotation Yrotation Xrotation
                        JOINT RightHandRing4
                        {
                          OFFSET -2.654903 -4e-06 4e-06
                          CHANNELS 3 Zrotation Yrotation Xrotation
                          JOINT RightHandRingEnd
                          {
                            OFFSET -1.933568 0.077527 -5.2e-05
                            CHANNELS 3 Zrotation Yrotation Xrotation
                          }
                        }
                      }
                    }
                  }
                  JOINT RightHandPinky1
                  {
                    OFFSET -2.866425 -0.342796 -1.584145
                    CHANNELS 3 Zrotation Yrotation Xrotation
                    JOINT RightHandPinky2
                    {
                      OFFSET -5.091371 -1.332055 -1.772385
                      CHANNELS 3 Zrotation Yrotation Xrotation
                      JOINT RightHandPinky3
                      {
                        OFFSET -3.062664 -4e-06 1e-06
                        CHANNELS 3 Zrotation Yrotation Xrotation
                        JOINT RightHandPinky4
                        {
                          OFFSET -1.546529 4e-06 -2e-06
                          CHANNELS 3 Zrotation Yrotation Xrotation
                          JOINT RightHandPinkyEnd
                          {
                            OFFSET -1.945119 -0.157718 0.057211
                            CHANNELS 3 Zrotation Yrotation Xrotation
                          }
                        }
                      }
                    }
                  }
                }
              }
            }
          }
        }
      }
    }
    JOINT LeftLeg
    {
      OFFSET 10.043214 -8.434526 2.595655
      CHANNELS 3 Zrotation Yrotation Xrotation
      JOINT LeftShin
      {
        OFFSET -1e-06 -43.221752 -0.802913
        CHANNELS 3 Zrotation Yrotation Xrotation
        JOINT LeftFoot
        {
          OFFSET 1e-06 -42.155094 -3.481523
          CHANNELS 3 Zrotation Yrotation Xrotation
          JOINT LeftToeBase
          {
            OFFSET 0.0 -5.059472 13.231529
            CHANNELS 3 Zrotation Yrotation Xrotation
            JOINT LeftToeEnd
            {
              OFFSET -0.009607 -1.647619 6.513017
              CHANNELS 3 Zrotation Yrotation Xrotation
            }
          }
        }
      }
    }
    JOINT RightLeg
    {
      OFFSET -10.047278 -8.29526 2.620317
      CHANNELS 3 Zrotation Yrotation Xrotation
      JOINT RightShin
      {
        OFFSET 1e-06 -43.362206 -0.805556
        CHANNELS 3 Zrotation Yrotation Xrotation
        JOINT RightFoot
        {
          OFFSET 2e-06 -42.117393 -3.478398
          CHANNELS 3 Zrotation Yrotation Xrotation
          JOINT RightToeBase
          {
            OFFSET -0.0 -5.079609 13.284196
            CHANNELS 3 Zrotation Yrotation Xrotation
            JOINT RightToeEnd
            {
              OFFSET 0.009532 -1.634378 6.460591
              CHANNELS 3 Zrotation Yrotation Xrotation
            }
          }
        }
      }
    }
  }
}
MOTION
Frames: 4
Frame Time: 0.03333333333333333
0.0 0.0 0.0 0.0 -0.0 0.0 2.894453 100.005402 5.10628 1.510277 -0.018974 -5.597008 -1.214312 0.436526 -3.450913 -0.635851 0.303602 -6.236075 -0.573262 -0.70307 11.658425 0.448989 2.584517 6.571161 -0.479639 0.115466 -3.717452 -0.107587 -0.483338 -4.108658 7.7e-05 -2.2e-05 6e-06 -0.001969 0.04572 -0.024781 0.721911 -3.702689 -10.6157 -0.731564 3.798427 -10.62082 -15.002608 -3.240414 12.481136 -59.866211 -9.778768 32.406357 0.333054 -23.072123 -0.153849 -1.488761 3.694689 -10.591736 -5.882102 9.861279 0.702592 -10.936863 -0.360574 7.156202 -1e-06 8.774821 -2e-06 -16.064028 18.062231 6.049093 -1.844031 2.498504 -2.507276 -10.16359 4.678942 4.621108 -20.976004 -3e-06 2e-06 -21.226263 2.451697 -3.593997 0.0 -6e-06 -1e-06 -1.36268 2.240796 -0.746324 -21.334896 0.584909 3.008321 -13.821201 -4e-06 0.0 -23.887152 -0.249075 -0.83948 -60.051685 2.350984 -1.138343 -0.294025 1.679687 0.833256 -14.218197 0.093215 1.300582 -34.212013 -0.287562 0.967171 -20.033194 0.964536 1.212843 0.0 -0.0 0.0 -3.440385 0.788233 0.501656 -15.928174 -3.167307 2.999705 -6.33882 -1e-06 0.0 -18.123426 3.648184 -4.905667 -2e-06 -0.0 -1e-06 14.657248 9.833238 13.076167 63.906986 6.012196 24.92185 0.27596 27.135391 0.111332 2.762215 0.107806 11.18574 2.24354 -5.255033 -3.180155 14.282881 -0.826592 6.952499 -4e-06 -12.690593 0.0 16.008091 -17.534407 2.578322 1.665666 -1.95592 -2.878297 4.727797 -4.170584 4.993918 11.02052 3e-06 0.0 12.109043 -3.735713 -2.866782 0.0 -0.0 1e-06 1.291983 -1.928546 -1.498088 14.800118 0.567468 3.865607 14.242561 -1.341736 -6.660653 19.631954 0.143926 -0.648243 49.894218 -0.758905 -6.247419 0.353029 -1.511149 -0.03194 20.222782 3.684309 2.316626 18.787262 6e-06 -1e-06 10.75162 -0.479866 1.397905 0.0 2e-06 1e-06 3.273805 0.305947 -0.58011 21.486801 11.830368 2.266131 8.162922 3e-06 -2e-06 18.399071 -3.798979 -4.940572 3e-06 -0.0 0.0 2.247655 6.609746 9.375991 0.018502 -0.103652 2.818813 -2.871867 7.230565 -6.102076 1.653345 -1.932451 -0.379054 0.0 -0.0 2e-06 -5.660891 8.390816 8.69576 -0.019326 0.168456 1.709366 6.086624 -5.557358 -4.22206 -1.427186 1.074644 0.374234 -0.0 0.0 -1e-06 
0.0 0.0 0.0 0.0 -0.0 0.0 2.95088 100.02993 5.20572 1.535756 0.02246 -5.556622 -1.2342 0.435913 -3.418219 -0.614106 0.351264 -6.231239 -0.591641 -0.708133 11.640948 0.457469 2.577696 6.538932 -0.496008 0.157426 -3.702915 -0.125995 -0.452639 -4.019622 7.7e-05 -2.3e-05 6e-06 0.003934 0.062581 -0.025421 0.721469 -3.685108 -10.61858 -0.719695 3.814207 -10.624318 -15.054707 -3.212944 12.474394 -59.769287 -9.772602 32.453823 0.297522 -23.109568 -0.153498 -1.580993 3.672422 -10.347507 -5.882106 9.861285 0.702588 -10.93687 -0.360575 7.156202 -0.0 8.774824 -1e-06 -16.068014 18.063665 6.10309 -1.844033 2.498505 -2.507279 -10.1636 4.678944 4.621105 -20.976023 -3e-06 1e-06 -21.226286 2.451696 -3.594002 0.0 -6e-06 -0.0 -1.362681 2.240798 -0.746321 -21.334911 0.58491 3.008321 -13.821213 -4e-06 -0.0 -23.887167 -0.24908 -0.839485 -60.188747 2.365665 -1.050314 -0.294024 1.679687 0.833255 -14.218207 0.093215 1.30058 -34.212048 -0.287565 0.967166 -20.033211 0.964534 1.212842 -1e-06 0.0 0.0 -3.440388 0.788233 0.501657 -15.928185 -3.167309 2.999705 -6.338826 -2e-06 0.0 -18.123449 3.648183 -4.905674 -3e-06 -0.0 -3e-06 14.648885 9.870325 13.182827 64.015297 5.963568 24.826065 0.218362 27.137001 0.131993 2.879709 0.055866 11.168635 2.243541 -5.255036 -3.180156 14.282888 -0.826595 6.952498 -2e-06 -12.690601 -2e-06 15.985655 -17.510578 2.554116 1.665666 -1.955921 -2.878298 4.727799 -4.170585 4.993922 11.020524 1e-06 0.0 12.109051 -3.735714 -2.866784 -0.0 -0.0 2e-06 1.291986 -1.928549 -1.498091 14.800125 0.567467 3.865606 14.242571 -1.341736 -6.660659 19.631968 0.143926 -0.648246 49.836128 -0.703984 -6.295202 0.353029 -1.51115 -0.03194 20.222788 3.684308 2.31663 18.78727 5e-06 -1e-06 10.751627 -0.479869 1.397905 -1e-06 1e-06 1e-06 3.273807 0.305947 -0.58011 21.486809 11.830366 2.266131 8.162924 -0.0 -1e-06 18.399076 -3.798985 -4.940575 3e-06 -1e-06 -0.0 2.248908 6.631579 9.343562 0.010235 -0.144042 2.8552 -2.841896 7.227228 -6.168148 1.650555 -1.938045 -0.386422 0.0 -0.0 2e-06 -5.681665 8.3394 8.705645 -0.028084 0.132732 1.682252 6.086493 -5.524383 -4.274146 -1.424645 1.054866 0.318483 -0.0 0.0 -1e-06 
0.0 0.0 0.0 0.0 -0.0 0.0 2.960719 100.052795 5.220169 1.539786 0.098182 -5.509892 -1.234274 0.441277 -3.391799 -0.612183 0.366426 -6.241884 -0.60154 -0.708035 11.660012 0.485607 2.589812 6.565432 -0.516739 0.196587 -3.693697 -0.130795 -0.409747 -3.984689 7.7e-05 -2.2e-05 6e-06 0.006532 0.067139 -0.021259 0.714503 -3.683075 -10.623033 -0.707813 3.821167 -10.62789 -15.086267 -3.211297 12.459969 -59.683853 -9.761358 32.570297 0.290306 -23.096066 -0.158893 -1.699954 3.660831 -10.275691 -5.882098 9.861274 0.702588 -10.936857 -0.360576 7.156194 0.0 8.774815 -3e-06 -16.089516 18.079515 6.143752 -1.84403 2.498502 -2.507276 -10.163588 4.678937 4.621106 -20.975998 -5e-06 3e-06 -21.226259 2.451692 -3.593995 0.0 -6e-06 -1e-06 -1.362679 2.240795 -0.746323 -21.334887 0.584906 3.008318 -13.821197 -4e-06 1e-06 -23.88714 -0.249079 -0.83948 -60.307518 2.357248 -0.971597 -0.294024 1.679685 0.833254 -14.218193 0.093214 1.30058 -34.212009 -0.287564 0.967173 -20.033192 0.964536 1.212844 0.0 -0.0 0.0 -3.440384 0.788233 0.501654 -15.928168 -3.167307 2.999707 -6.338818 -1e-06 0.0 -18.123425 3.64818 -4.905663 -2e-06 -0.0 -3e-06 14.66562 9.918104 13.248149 64.109604 5.903823 24.858101 0.126111 27.136036 0.112563 2.999367 -0.007607 11.070555 2.243538 -5.255032 -3.180155 14.282874 -0.826592 6.952496 -4e-06 -12.690594 0.0 15.976744 -17.500856 2.541612 1.665665 -1.955919 -2.878295 4.727793 -4.170584 4.993918 11.020514 4e-06 -0.0 12.109036 -3.735711 -2.866781 -0.0 -0.0 1e-06 1.291984 -1.928548 -1.498088 14.800114 0.567469 3.865605 14.242558 -1.341733 -6.660649 19.631948 0.143928 -0.648242 49.767445 -0.685582 -6.332864 0.353029 -1.51115 -0.031941 20.222769 3.684308 2.316628 18.787251 6e-06 1e-06 10.751619 -0.479865 1.397904 -1e-06 1e-06 1e-06 3.273803 0.305947 -0.58011 21.486788 11.830364 2.266131 8.162916 2e-06 -1e-06 18.399059 -3.79898 -4.940569 3e-06 -1e-06 -1e-06 2.275337 6.645197 9.304911 0.009119 -0.159428 2.891582 -2.861437 7.164462 -6.233096 1.646348 -1.940373 -0.337717 0.0 -0.0 2e-06 -5.662678 8.291122 8.704391 -0.038484 0.104584 1.675949 6.033062 -5.476966 -4.243044 -1.41869 1.037346 0.313248 -0.0 -0.0 -1e-06 
0.0 0.0 0.0 0.0 -0.0 0.0 2.928891 100.04612 5.251676 1.535186 0.15481 -5.46815 -1.223609 0.451182 -3.374246 -0.616281 0.375606 -6.243683 -0.608262 -0.727073 11.671664 0.526674 2.616278 6.631119 -0.545166 0.203941 -3.697687 -0.153225 -0.392067 -3.939208 7.7e-05 -2.2e-05 6e-06 0.007717 0.066623 -0.018978 0.708367 -3.684868 -10.626932 -0.699495 3.821929 -10.632786 -15.091493 -3.214538 12.422266 -59.652367 -9.700634 32.748528 0.299462 -23.064692 -0.160175 -1.808557 3.645503 -10.283813 -5.8821 9.861276 0.70259 -10.936859 -0.360572 7.156201 -0.0 8.774817 1e-06 -16.118637 18.106335 6.165392 -1.84403 2.498501 -2.507276 -10.163589 4.678942 4.621108 -20.976 -2e-06 4e-06 -21.226265 2.451695 -3.593997 -0.0 -8e-06 -1e-06 -1.36268 2.240796 -0.746322 -21.334888 0.584912 3.008322 -13.821197 -1e-06 3e-06 -23.887142 -0.249075 -0.839483 -60.394966 2.338368 -0.930705 -0.294024 1.679685 0.833255 -14.218192 0.093215 1.300581 -34.212009 -0.28756 0.967169 -20.033194 0.964539 1.212844 -1e-06 -1e-06 1e-06 -3.440385 0.788232 0.501657 -15.928168 -3.167305 2.999706 -6.338819 -1e-06 0.0 -18.123426 3.648183 -4.905666 -2e-06 -0.0 -3e-06 14.681104 9.953227 13.255172 64.18293 5.82743 24.982157 0.061531 27.07777 0.090741 3.095084 -0.017158 11.019071 2.24354 -5.255033 -3.180156 14.282887 -0.826594 6.9525 -3e-06 -12.690598 2e-06 15.967963 -17.502306 2.541057 1.665665 -1.955921 -2.878299 4.727797 -4.170587 4.993925 11.020524 2e-06 -2e-06 12.10905 -3.735715 -2.866784 -0.0 -1e-06 1e-06 1.291985 -1.928548 -1.498088 14.800125 0.567468 3.865607 14.242569 -1.341736 -6.660655 19.631962 0.143925 -0.648247 49.740417 -0.684164 -6.336072 0.353029 -1.51115 -0.031941 20.222786 3.684307 2.31663 18.78727 5e-06 2e-06 10.751625 -0.479871 1.397908 -2e-06 0.0 1e-06 3.273806 0.305947 -0.580111 21.486809 11.830368 2.266131 8.162924 2e-06 -1e-06 18.399076 -3.798985 -4.940575 4e-06 0.0 -3e-06 2.330891 6.678444 9.283908 0.010807 -0.167454 2.915551 -2.936896 7.080321 -6.305788 1.642726 -1.937028 -0.283465 0.0 -0.0 2e-06 -5.629178 8.246741 8.718352 -0.044371 0.08153 1.677818 5.989622 -5.468393 -4.25561 -1.414405 1.035265 0.33573 0.0 0.0 -1e-06 
